<svg id="Layer_1" data-name="Layer 1" xmlns="http://www.w3.org/2000/svg" xmlns:xlink="http://www.w3.org/1999/xlink" viewBox="0 0 512 512"><defs><filter id="luminosity-noclip" x="0" y="-8092" width="512" height="32766" filterUnits="userSpaceOnUse" color-interpolation-filters="sRGB"><feFlood flood-color="#fff" result="bg"/><feBlend in="SourceGraphic" in2="bg"/></filter><mask id="mask" x="0" y="-8092" width="512" height="32766" maskUnits="userSpaceOnUse"><g filter="url(#luminosity-noclip)"/></mask><radialGradient id="radial-gradient" cx="414.47" cy="95.96" r="141.4" gradientTransform="translate(-494.37 82.26) scale(1.81 1.81)" gradientUnits="userSpaceOnUse"><stop offset="0.55" stop-color="#fff"/><stop offset="0.6" stop-color="#d4d4d4"/><stop offset="0.66" stop-color="#9d9d9d"/><stop offset="0.72" stop-color="#6d6d6d"/><stop offset="0.78" stop-color="#464646"/><stop offset="0.84" stop-color="#272727"/><stop offset="0.89" stop-color="#111"/><stop offset="0.95" stop-color="#040404"/><stop offset="1"/></radialGradient><filter id="luminosity-noclip-2" x="0" y="0" width="512" height="512" filterUnits="userSpaceOnUse" color-interpolation-filters="sRGB"><feFlood flood-color="#fff" result="bg"/><feBlend in="SourceGraphic" in2="bg"/></filter><mask id="mask-2" x="0" y="0" width="512" height="512" maskUnits="userSpaceOnUse"><g mask="url(#mask)" filter="url(#luminosity-noclip-2)"><circle cx="256" cy="256" r="256" fill="url(#radial-gradient)" style="mix-blend-mode:multiply"/></g></mask><radialGradient id="radial-gradient-2" cx="414.47" cy="95.96" r="141.4" gradientTransform="translate(-494.37 82.26) scale(1.81 1.81)" gradientUnits="userSpaceOnUse"><stop offset="0.55" stop-color="#c5c7c9"/><stop offset="0.64" stop-color="#d8d9db"/><stop offset="0.77" stop-color="#eeeeef"/><stop offset="0.89" stop-color="#fbfbfb"/><stop offset="1" stop-color="#fff"/></radialGradient></defs><title>youtube</title><g mask="url(#mask-2)"><circle cx="256" cy="256" r="256" fill="url(#radial-gradient-2)"/></g><path d="M71.43,205.43C71.43,103.49,154.07,20.85,256,20.85s184.57,82.65,184.57,184.6S357.93,390,256,390,71.42,307.36,71.43,205.43Z" fill="#fff"/><path d="M196.64,254.76a17.38,17.38,0,0,1-11.48-11.16c-5-13.65-6.44-70.82,3.13-82.07a18.53,18.53,0,0,1,12.5-6.65c25.78-2.77,105.45-2.38,114.64.93a18,18,0,0,1,11.27,10.85c5.44,14.12,5.62,65.51-.72,79.12a17.55,17.55,0,0,1-8.09,8.16C308.27,259,209.29,258.92,196.64,254.76Zm41-26.8L284,203.88l-46.43-24.22Z" fill="#ff352e" fill-rule="evenodd"/></svg>